<svg width="512" height="512" viewBox="0 0 512 512" fill="none" xmlns="http://www.w3.org/2000/svg">
<mask id="mask0_364_1162" style="mask-type:alpha" maskUnits="userSpaceOnUse" x="0" y="0" width="512" height="512">
<path fill-rule="evenodd" clip-rule="evenodd" d="M32.4998 15.5C181.167 15.3333 329.834 15.5 478.5 16C486.667 18.8333 492.167 24.3333 495 32.5C495.667 149.167 495.667 265.833 495 382.5C492.649 389.519 488.149 394.686 481.5 398C471.239 399.26 460.906 399.927 450.5 400C464.029 413.195 477.196 426.695 490 440.5C495.816 455.785 491.649 467.285 477.5 475C470.375 477.201 463.375 476.867 456.5 474C431.195 449.695 406.195 425.028 381.5 400C358.836 399.5 336.169 399.333 313.5 399.5C318.049 426.13 322.383 452.796 326.5 479.5C338.838 479.333 351.171 479.5 363.5 480C366.516 481.529 367.849 484.029 367.5 487.5C367.849 490.971 366.516 493.471 363.5 495C291.5 495.667 219.5 495.667 147.5 495C144.484 493.471 143.151 490.971 143.5 487.5C143.151 484.029 144.484 481.529 147.5 480C159.829 479.5 172.162 479.333 184.5 479.5C188.617 452.796 192.951 426.13 197.5 399.5C142.499 399.667 87.4988 399.5 32.4998 399C25.4806 396.649 20.3139 392.149 16.9998 385.5C15.339 267.889 15.0057 150.223 15.9998 32.5C19.0189 24.3156 24.5189 18.649 32.4998 15.5ZM39.4998 31.5C183.5 31.3333 327.5 31.5 471.5 32C476 32.5 478.5 35 479 39.5C479.5 52.8292 479.667 66.1625 479.5 79.5C330.167 79.5 180.833 79.5 31.4998 79.5C31.3332 66.1625 31.4999 52.8292 31.9998 39.5C32.6802 34.9895 35.1802 32.3228 39.4998 31.5ZM31.4998 95.5C180.833 95.5 330.167 95.5 479.5 95.5C479.5 164.833 479.5 234.167 479.5 303.5C437.499 303.667 395.499 303.5 353.5 303C349.333 298.833 345.167 294.667 341 290.5C337.977 279.076 334.644 267.742 331 256.5C325.697 247.535 318.197 241.035 308.5 237C288.617 231.924 268.617 227.424 248.5 223.5C245.747 223.353 243.247 224.02 241 225.5C239.48 229.375 239.146 233.375 240 237.5C244.176 255.87 248.509 274.203 253 292.5C254.396 296.23 256.23 299.73 258.5 303C182.834 303.5 107.167 303.667 31.4998 303.5C31.4998 234.167 31.4998 164.833 31.4998 95.5ZM255.5 127.5C319.5 127.5 383.5 127.5 447.5 127.5C447.5 138.167 447.5 148.833 447.5 159.5C383.5 159.5 319.5 159.5 255.5 159.5C255.5 148.833 255.5 138.167 255.5 127.5ZM95.4998 159.5C122.167 159.5 148.833 159.5 175.5 159.5C175.5 186.167 175.5 212.833 175.5 239.5C148.833 239.5 122.167 239.5 95.4998 239.5C95.4998 212.833 95.4998 186.167 95.4998 159.5ZM259.5 243.5C272.555 246.011 285.555 248.845 298.5 252C306.495 253.742 312.328 258.242 316 265.5C318.963 274.012 320.963 282.679 322 291.5C316.921 297.084 311.421 302.084 305.5 306.5C295.323 304.71 285.656 301.543 276.5 297C272.007 293.166 269.174 288.333 268 282.5C265.004 269.519 262.171 256.519 259.5 243.5ZM331.5 306.5C343.247 316.743 354.58 327.577 365.5 339C362 342.5 358.5 346 355 349.5C344.333 338.833 333.667 328.167 323 317.5C322.333 316.833 322.333 316.167 323 315.5C326.038 312.631 328.871 309.631 331.5 306.5ZM31.4998 319.5C117.501 319.333 203.501 319.5 289.5 320C295.314 321.203 300.981 322.87 306.5 325C325.833 344.333 345.167 363.667 364.5 383C256.167 383.667 147.833 383.667 39.4998 383C34.9998 382.5 32.4998 380 31.9998 375.5C31.4999 356.836 31.3332 338.17 31.4998 319.5ZM370.5 320.5C406.663 319.502 442.996 319.168 479.5 319.5C479.963 339.234 479.463 358.901 478 378.5C476.661 381.094 474.494 382.594 471.5 383C458.833 383.667 446.167 383.667 433.5 383C412.632 361.965 391.632 341.132 370.5 320.5ZM376.5 351.5C409.416 382.915 441.916 414.915 474 447.5C476.796 453.907 474.796 457.907 468 459.5C466.373 459.375 464.873 458.875 463.5 458C431.667 426.167 399.833 394.333 368 362.5C367.333 361.833 367.333 361.167 368 360.5C371.038 357.631 373.871 354.631 376.5 351.5ZM214.5 399.5C241.833 399.5 269.167 399.5 296.5 399.5C300.617 426.204 304.951 452.87 309.5 479.5C273.5 479.5 237.5 479.5 201.5 479.5C206.049 452.87 210.383 426.204 214.5 399.5Z" fill="black"/>
<path opacity="0.999" fill-rule="evenodd" clip-rule="evenodd" d="M51.5002 47.4993C62.86 46.7093 66.1933 51.5427 61.5002 61.9993C50.9643 65.9963 46.4643 62.4963 48.0002 51.4993C48.6899 49.6491 49.8566 48.3157 51.5002 47.4993Z" fill="black"/>
<path opacity="0.999" fill-rule="evenodd" clip-rule="evenodd" d="M83.5002 47.4993C94.86 46.7093 98.1933 51.5427 93.5002 61.9993C82.9643 65.9963 78.4643 62.4963 80.0002 51.4993C80.6899 49.6491 81.8566 48.3157 83.5002 47.4993Z" fill="black"/>
<path opacity="0.999" fill-rule="evenodd" clip-rule="evenodd" d="M115.5 47.4993C126.86 46.7093 130.193 51.5427 125.5 61.9993C114.964 65.9963 110.464 62.4963 112 51.4993C112.69 49.6491 113.856 48.3157 115.5 47.4993Z" fill="black"/>
<path fill-rule="evenodd" clip-rule="evenodd" d="M51.4999 111.5C59.5068 111.334 67.5068 111.5 75.4999 112C78.5159 113.529 79.8493 116.029 79.4999 119.5C79.5964 121.926 78.9297 124.093 77.4999 126C72.9639 127.379 68.2972 127.879 63.4999 127.5C63.6654 131.514 63.4987 135.514 62.9999 139.5C61.4713 142.516 58.9713 143.849 55.4999 143.5C53.074 143.596 50.9073 142.93 48.9999 141.5C47.3932 132.936 47.0599 124.27 47.9999 115.5C48.6896 113.65 49.8563 112.316 51.4999 111.5Z" fill="black"/>
<path fill-rule="evenodd" clip-rule="evenodd" d="M99.5002 111.5C107.507 111.334 115.507 111.5 123.5 112C125.333 112.5 126.5 113.667 127 115.5C127.667 118.167 127.667 120.833 127 123.5C126.5 125.333 125.333 126.5 123.5 127C115.5 127.667 107.5 127.667 99.5002 127C96.4842 125.471 95.1508 122.971 95.5002 119.5C95.2826 115.934 96.6159 113.268 99.5002 111.5Z" fill="black"/>
<path fill-rule="evenodd" clip-rule="evenodd" d="M147.5 111.5C155.507 111.334 163.507 111.5 171.5 112C173.333 112.5 174.5 113.667 175 115.5C175.667 118.167 175.667 120.833 175 123.5C174.5 125.333 173.333 126.5 171.5 127C163.5 127.667 155.5 127.667 147.5 127C144.484 125.471 143.151 122.971 143.5 119.5C143.282 115.934 144.616 113.268 147.5 111.5Z" fill="black"/>
<path fill-rule="evenodd" clip-rule="evenodd" d="M195.5 111.5C203.507 111.334 211.507 111.5 219.5 112C220.416 112.374 221.25 112.874 222 113.5C223.109 118.056 223.609 122.722 223.5 127.5C223.333 131.5 223.167 135.5 223 139.5C221.471 142.516 218.971 143.849 215.5 143.5C213.074 143.596 210.907 142.93 209 141.5C207.621 136.964 207.121 132.297 207.5 127.5C203.486 127.666 199.486 127.499 195.5 127C194.584 126.626 193.75 126.126 193 125.5C190.425 120.034 191.258 115.367 195.5 111.5Z" fill="black"/>
<path fill-rule="evenodd" clip-rule="evenodd" d="M51.5 159.5C54.1873 159.336 56.854 159.503 59.5 160C61.3333 160.5 62.5 161.667 63 163.5C63.6667 171.5 63.6667 179.5 63 187.5C62.5 189.333 61.3333 190.5 59.5 191C56.8333 191.667 54.1667 191.667 51.5 191C49.6667 190.5 48.5 189.333 48 187.5C47.3333 179.5 47.3333 171.5 48 163.5C48.6897 161.65 49.8564 160.316 51.5 159.5Z" fill="black"/>
<path fill-rule="evenodd" clip-rule="evenodd" d="M211.5 159.5C214.187 159.336 216.854 159.503 219.5 160C221.333 160.5 222.5 161.667 223 163.5C223.667 171.5 223.667 179.5 223 187.5C222.5 189.333 221.333 190.5 219.5 191C216.833 191.667 214.167 191.667 211.5 191C209.667 190.5 208.5 189.333 208 187.5C207.333 179.5 207.333 171.5 208 163.5C208.69 161.65 209.856 160.316 211.5 159.5Z" fill="black"/>
<path fill-rule="evenodd" clip-rule="evenodd" d="M243.5 191.5C262.17 191.333 280.836 191.5 299.5 192C301.333 192.5 302.5 193.667 303 195.5C303.667 198.167 303.667 200.833 303 203.5C302.5 205.333 301.333 206.5 299.5 207C280.833 207.667 262.167 207.667 243.5 207C240.484 205.471 239.151 202.971 239.5 199.5C239.282 195.934 240.616 193.268 243.5 191.5Z" fill="black"/>
<path fill-rule="evenodd" clip-rule="evenodd" d="M323.5 191.5C368.835 191.333 414.168 191.5 459.5 192C462.516 193.529 463.849 196.029 463.5 199.5C463.849 202.971 462.516 205.471 459.5 207C414.167 207.667 368.833 207.667 323.5 207C320.484 205.471 319.151 202.971 319.5 199.5C319.282 195.934 320.616 193.268 323.5 191.5Z" fill="black"/>
<path fill-rule="evenodd" clip-rule="evenodd" d="M51.5 207.5C54.1873 207.336 56.854 207.503 59.5 208C61.3333 208.5 62.5 209.667 63 211.5C63.6667 219.5 63.6667 227.5 63 235.5C62.5 237.333 61.3333 238.5 59.5 239C56.8333 239.667 54.1667 239.667 51.5 239C49.6667 238.5 48.5 237.333 48 235.5C47.3333 227.5 47.3333 219.5 48 211.5C48.6897 209.65 49.8564 208.316 51.5 207.5Z" fill="black"/>
<path fill-rule="evenodd" clip-rule="evenodd" d="M211.5 207.5C214.187 207.336 216.854 207.503 219.5 208C221.333 208.5 222.5 209.667 223 211.5C223.667 219.5 223.667 227.5 223 235.5C222.5 237.333 221.333 238.5 219.5 239C216.833 239.667 214.167 239.667 211.5 239C209.667 238.5 208.5 237.333 208 235.5C207.333 227.5 207.333 219.5 208 211.5C208.69 209.65 209.856 208.316 211.5 207.5Z" fill="black"/>
<path fill-rule="evenodd" clip-rule="evenodd" d="M339.5 223.5C379.501 223.333 419.501 223.5 459.5 224C462.516 225.529 463.849 228.029 463.5 231.5C463.849 234.971 462.516 237.471 459.5 239C419.5 239.667 379.5 239.667 339.5 239C336.484 237.471 335.151 234.971 335.5 231.5C335.282 227.934 336.616 225.268 339.5 223.5Z" fill="black"/>
<path fill-rule="evenodd" clip-rule="evenodd" d="M51.4999 255.499C55.2567 255.07 58.7567 255.736 61.9999 257.499C63.3788 262.035 63.8788 266.702 63.4999 271.499C67.5137 271.333 71.5137 271.5 75.4999 271.999C78.5159 273.528 79.8493 276.028 79.4999 279.499C79.5964 281.925 78.9297 284.092 77.4999 285.999C72.9444 287.108 68.2777 287.608 63.4999 287.499C59.4999 287.332 55.4999 287.166 51.4999 286.999C50.5837 286.625 49.7503 286.125 48.9999 285.499C47.3932 276.935 47.0599 268.269 47.9999 259.499C48.6896 257.649 49.8563 256.315 51.4999 255.499Z" fill="#010001"/>
<path fill-rule="evenodd" clip-rule="evenodd" d="M211.5 255.5C214.187 255.336 216.854 255.503 219.5 256C221.333 256.5 222.5 257.667 223 259.5C223.667 267.5 223.667 275.5 223 283.5C222.5 285.333 221.333 286.5 219.5 287C210.73 287.94 202.064 287.607 193.5 286C191.058 281.948 190.891 277.781 193 273.5C193.75 272.874 194.584 272.374 195.5 272C199.486 271.501 203.486 271.334 207.5 271.5C207.334 267.486 207.501 263.486 208 259.5C208.69 257.65 209.856 256.316 211.5 255.5Z" fill="#010001"/>
<path opacity="0.999" fill-rule="evenodd" clip-rule="evenodd" d="M99.5002 271.5C107.507 271.334 115.507 271.5 123.5 272C125.333 272.5 126.5 273.667 127 275.5C127.667 278.167 127.667 280.833 127 283.5C126.5 285.333 125.333 286.5 123.5 287C115.5 287.667 107.5 287.667 99.5002 287C96.4842 285.471 95.1508 282.971 95.5002 279.5C95.2826 275.934 96.6159 273.268 99.5002 271.5Z" fill="#010002"/>
<path opacity="0.999" fill-rule="evenodd" clip-rule="evenodd" d="M147.5 271.5C155.507 271.334 163.507 271.5 171.5 272C173.333 272.5 174.5 273.667 175 275.5C175.667 278.167 175.667 280.833 175 283.5C174.5 285.333 173.333 286.5 171.5 287C163.5 287.667 155.5 287.667 147.5 287C144.484 285.471 143.151 282.971 143.5 279.5C143.282 275.934 144.616 273.268 147.5 271.5Z" fill="#010002"/>
<path opacity="0.998" fill-rule="evenodd" clip-rule="evenodd" d="M235.5 335.5C248.837 335.333 262.171 335.5 275.5 336C277.333 336.5 278.5 337.667 279 339.5C279.667 342.167 279.667 344.833 279 347.5C278.5 349.333 277.333 350.5 275.5 351C262.167 351.667 248.833 351.667 235.5 351C232.484 349.471 231.151 346.971 231.5 343.5C231.282 339.934 232.616 337.268 235.5 335.5Z" fill="#000103"/>
</mask>
<g mask="url(#mask0_364_1162)">
<rect x="11" y="-1" width="512" height="512" fill="url(#paint0_linear_364_1162)"/>
</g>
<defs>
<linearGradient id="paint0_linear_364_1162" x1="267" y1="-1" x2="267" y2="511" gradientUnits="userSpaceOnUse">
<stop stop-color="#F15261"/>
<stop offset="0.510417" stop-color="#CC6ECD"/>
<stop offset="1" stop-color="#30BCE6"/>
</linearGradient>
</defs>
</svg>
