<svg width="512" height="512" viewBox="0 0 512 512" fill="none" xmlns="http://www.w3.org/2000/svg">
<mask id="mask0_364_1075" style="mask-type:alpha" maskUnits="userSpaceOnUse" x="0" y="0" width="512" height="512">
<path fill-rule="evenodd" clip-rule="evenodd" d="M385.5 23.5C385.5 23.8333 385.5 24.1667 385.5 24.5C386.376 24.3691 387.043 24.7025 387.5 25.5C388.308 27.9252 389.308 30.2585 390.5 32.5C391.5 33.8333 392.5 33.8333 393.5 32.5C394.541 34.9913 395.374 34.9913 396 32.5C401.314 33.2656 406.148 33.7656 410.5 34C410.957 33.586 411.291 33.086 411.5 32.5C409.414 31.5113 407.747 30.178 406.5 28.5C411.93 30.9236 417.43 33.2569 423 35.5C430.102 31.8584 437.269 28.6917 444.5 26C458.681 40.0139 472.681 54.1806 486.5 68.5C483.167 75.1667 479.833 81.8333 476.5 88.5C478.655 94.8209 481.655 100.654 485.5 106C492.646 107.715 499.479 110.215 506 113.5C506.667 133.5 506.667 153.5 506 173.5C498.747 176.695 491.414 179.695 484 182.5C482.224 187.829 480.057 192.996 477.5 198C479.923 204.346 482.756 210.513 486 216.5C486.667 217.833 486.667 219.167 486 220.5C472.5 234 459 247.5 445.5 261C443.833 261.667 442.167 261.667 440.5 261C434.554 258.694 428.888 255.861 423.5 252.5C418.603 254.783 413.603 256.783 408.5 258.5C405.723 266.128 402.723 273.628 399.5 281C380.232 282.629 360.898 282.962 341.5 282C339.324 281.837 337.491 281.004 336 279.5C334.023 272.391 331.523 265.558 328.5 259C323.505 257.17 318.505 255.337 313.5 253.5C306.838 256.831 300.172 260.164 293.5 263.5C278.514 249.014 263.681 234.347 249 219.5C250.829 213.337 253.663 207.504 257.5 202C180.501 201.5 103.501 201.333 26.5 201.5C25.1252 283.478 25.2919 365.478 27 447.5C27.7065 449.081 28.5399 450.581 29.5 452C123.177 452.189 216.843 452.689 310.5 453.5C308.581 432.883 315.581 416.216 331.5 403.5C332.596 401.897 333.93 400.397 335.5 399C342.941 395.017 350.774 392.184 359 390.5C359.794 360.489 359.627 330.489 358.5 300.5C358.288 297.989 358.955 295.822 360.5 294C365.833 293.333 371.167 293.333 376.5 294C377 294.5 377.5 295 378 295.5C377.412 327.15 377.412 358.817 378 390.5C404.324 397.157 419.991 413.824 425 440.5C426.481 469.656 413.981 490.156 387.5 502C357.524 509.84 334.19 500.673 317.5 474.5C221.168 473.667 124.835 473.167 28.5 473C17.3069 469.807 10.1403 462.64 7 451.5C6.83333 444 6.66667 436.5 6.5 429C7.4208 321.834 7.58746 214.668 7 107.5C7.25029 104.246 8.25029 101.246 10 98.5C14.577 91.9136 20.7437 87.7469 28.5 86C104.836 85.5292 181.17 85.5292 257.5 86C257.833 85.6667 258.167 85.3333 258.5 85C254.691 79.2367 252.191 73.07 251 66.5C264.5 53 278 39.5 291.5 26C293.167 25.3333 294.833 25.3333 296.5 26C302.253 29.2938 308.087 32.4604 314 35.5C319.333 32.7496 324.833 30.4162 330.5 28.5C329.878 30.335 328.544 31.5017 326.5 32C327 32.1667 327.5 32.3333 328 32.5C334.621 32.4083 340.788 32.4083 346.5 32.5C347.921 29.3207 349.588 26.3207 351.5 23.5C352.794 22.7101 353.961 21.7101 355 20.5C355.374 21.4162 355.874 22.2496 356.5 23C359.5 23.1667 362.5 23.3333 365.5 23.5C368.939 23.4464 372.106 22.7797 375 21.5C375.333 22.1667 375.667 22.8333 376 23.5C376.689 22.6433 377.522 21.9767 378.5 21.5C380.523 23.1733 382.856 23.8399 385.5 23.5ZM385.5 24.5C387.241 31.058 389.575 37.3913 392.5 43.5C403.17 46.2232 413.336 50.2232 423 55.5C428.228 53.1362 433.394 50.6362 438.5 48C439.5 47.3333 440.5 47.3333 441.5 48C449 55.5 456.5 63 464 70.5C464.667 71.5 464.667 72.5 464 73.5C461.341 78.649 458.841 83.8157 456.5 89C458.392 93.4934 460.392 97.9934 462.5 102.5C462.957 102.086 462.291 103.086 462.5 102.5C464.923 107.434 465.756 114.1 467 119.5C473.132 122.712 479.632 125.045 486.5 126.5C486.5 137.833 486.5 149.167 486.5 160.5C479.502 161.588 473.002 163.922 467 167.5C463.706 178.093 459.539 188.26 454.5 198C456.616 202.399 459.116 206.566 462 210.5C462.991 212.447 463.325 214.447 463 216.5C455.167 223 448 230.167 441.5 238C435.633 236.58 429.966 234.246 424.5 231C419.833 231.45 415.5 233.117 411.5 236C404.769 238.133 398.102 240.466 391.5 243C388.795 248.619 386.462 254.453 384.5 260.5C373.849 261.666 363.182 261.832 352.5 261C350.616 254.774 348.283 248.774 345.5 243C334.54 239.322 324.04 234.822 314 229.5C309.229 232.135 304.396 234.635 299.5 237C298.167 237.667 296.833 237.667 295.5 237C288.667 230.167 281.833 223.333 275 216.5C276.769 209.63 279.102 202.964 282 196.5C276.701 187.48 272.701 177.814 270 167.5C269.167 166.667 268.333 165.833 267.5 165C261.91 163.395 256.41 161.562 251 159.5C250.333 148.833 250.333 138.167 251 127.5C256.41 125.438 261.91 123.605 267.5 122C268.333 121.167 269.167 120.333 270 119.5C272.577 109.689 276.243 100.356 281 91.5C281.667 89.8333 281.667 88.1667 281 86.5C277.788 81.9132 274.955 77.0799 272.5 72C280.667 63.8333 288.833 55.6667 297 47.5C303.011 51.6015 309.511 54.1015 316.5 55C325.501 50.3318 334.835 46.4984 344.5 43.5C347.454 37.474 350.121 31.3073 352.5 25C363.495 24.5002 374.495 24.3335 385.5 24.5ZM365.5 61.5C376.25 61.198 385.583 75.0313 395.5 79C401.325 81.7453 406.992 84.7453 412.5 88C433.041 107.071 446.374 126.904 441.5 155.5C431.886 189.667 406 209 456.5 147C414.118 143.451 453.285 154.451 450 112C451.342 76.496 344.509 68.6624 378.5 58.5C382.688 58.3238 361.688 62.3238 365.5 61.5ZM28.5 106.5C100.834 106.333 173.167 106.5 245.5 107C240.316 108.059 235.482 109.893 231 112.5C230.333 133.167 230.333 153.833 231 174.5C235.208 176.906 239.708 178.74 244.5 180C171.834 180.5 99.1674 180.667 26.5 180.5C26.3334 157.498 26.5 134.498 27 111.5C28.0086 109.975 28.5086 108.308 28.5 106.5ZM59.5 137.5C63.1667 137.5 66.8333 137.5 70.5 137.5C70.5 141.5 70.5 145.5 70.5 149.5C66.8333 149.5 63.1667 149.5 59.5 149.5C59.5 145.5 59.5 141.5 59.5 137.5ZM90.5 137.5C94.5 137.5 98.5 137.5 102.5 137.5C101.886 141.135 101.552 144.802 101.5 148.5C97.8455 148.942 94.1788 149.276 90.5 149.5C90.5 145.5 90.5 141.5 90.5 137.5ZM122.5 137.5C126.5 137.5 130.5 137.5 134.5 137.5C134.5 141.5 134.5 145.5 134.5 149.5C130.5 149.5 126.5 149.5 122.5 149.5C122.5 145.5 122.5 141.5 122.5 137.5ZM284.5 401C293.765 401.03 289.765 416.363 284.5 424C279.345 425.677 288.5 401 263.5 410.5C263.984 408.199 243 419.5 284.5 401ZM359.5 410.5C379.408 407.702 393.908 415.036 403 432.5C409.53 453.912 403.363 470.412 384.5 482C373.833 485.333 363.167 485.333 352.5 482C331.919 469.099 326.419 451.266 336 428.5C341.719 419.599 349.552 413.599 359.5 410.5ZM361.5 435C370.936 434.03 382.103 429.363 378 438C368.612 439.067 357.445 443.733 361.5 435Z" fill="black"/>
<path fill-rule="evenodd" clip-rule="evenodd" d="M406.5 28.5C407.747 30.178 410.414 31.5113 412.5 32.5C412.291 33.086 410.957 34.586 410.5 35C406.148 34.7656 401.814 35.7656 396.5 35C395.874 37.4913 394.041 38.4913 393 36C392 37.3333 390.5 33.8333 389.5 32.5C388.308 30.2585 387.308 27.9252 386.5 25.5C386.043 24.7025 385.376 24.3691 384.5 24.5C384.5 24.1667 361.5 23.8333 361.5 23.5C376.5 9.5 387.355 17.8157 388.5 19C389.239 17.9258 389.739 21.7591 391 21.5C394.344 22.1884 397.677 22.8551 401 23.5C401.117 22.0496 400.95 20.5496 400.5 19C400.316 17.6244 399.649 16.7911 398.5 16.5C399.161 14.4436 398.828 12.4436 397.5 10.5C397.586 9.5041 397.252 8.67076 396.5 8C376.996 7.171 357.662 7.33766 338.5 8.5C336.903 10.8478 335.903 13.5145 335.5 16.5C334.17 18.8811 334.836 17.2144 336.5 19.5C337.809 17.1088 346.309 16.6088 347 19C349.376 16.839 371.043 10.839 374 13C375.554 10.5728 352.221 21.0728 353 23.5C351.088 26.3207 349.921 30.8207 348.5 34C342.788 33.9083 333.621 32.4083 327 32.5C326.5 32.3333 326 32.1667 325.5 32C327.544 31.5017 328.878 30.335 329.5 28.5C332.025 21.591 334.359 14.591 336.5 7.5C357.167 6.16667 377.833 6.16667 398.5 7.5C400.993 14.4813 404.326 21.4813 406.5 28.5Z" fill="#0A0303"/>
<path fill-rule="evenodd" clip-rule="evenodd" d="M398.5 16.5C399.649 16.7911 400.316 17.6244 400.5 19C400.95 20.5496 401.117 22.0496 401 23.5C397.677 22.8551 394.344 22.1884 391 21.5C389.739 21.7591 388.739 22.4258 388 23.5C386.855 22.3157 385.688 22.3157 384.5 23.5C381.856 23.8399 379.523 23.1733 377.5 21.5C376.522 21.9767 375.689 22.6433 375 23.5C374.667 22.8333 374.333 22.1667 374 21.5C371.106 22.7797 367.939 23.4464 364.5 23.5C361.5 23.3333 358.5 23.1667 355.5 23C354.874 22.2496 354.374 21.4162 354 20.5C352.961 21.7101 351.794 22.7101 350.5 23.5C349.721 21.0728 348.554 21.0728 347 23.5C344.043 21.339 341.376 21.339 339 23.5C338.309 21.1088 337.309 21.1088 336 23.5C334.336 21.2144 334.17 18.8811 335.5 16.5C340.299 15.909 344.799 15.5756 349 15.5C349.333 16.1667 349.667 16.8333 350 17.5C350.741 16.3595 351.575 16.3595 352.5 17.5C353.192 16.9747 353.692 16.3081 354 15.5C357.498 16.2354 360.831 16.2354 364 15.5C365.482 17.7811 367.149 17.7811 369 15.5C370.395 16.8146 371.395 16.4812 372 14.5C373.054 16.7536 374.554 17.087 376.5 15.5C377.5 16.1667 378.5 16.8333 379.5 17.5C379.833 16.8333 380.167 16.1667 380.5 15.5C382.674 17.7808 384.674 17.7808 386.5 15.5C386.911 16.2624 387.077 17.2624 387 18.5C387.667 17.8333 388.333 17.1667 389 16.5C392.235 17.6325 395.402 17.6325 398.5 16.5Z" fill="#190709"/>
<path fill-rule="evenodd" clip-rule="evenodd" d="M338.5 8.5C338.783 9.28913 339.283 9.9558 340 10.5C342.763 10.3063 345.597 10.3063 348.5 10.5C349.816 7.97203 350.983 7.97203 352 10.5C356.329 7.61416 360.662 7.9475 365 11.5C365.667 10.1667 366.333 10.1667 367 11.5C367.317 9.69923 367.984 9.36589 369 10.5C369.333 9.83333 369.667 9.16667 370 8.5C370.739 9.57425 371.739 10.2409 373 10.5C376.825 10.4473 380.658 10.4473 384.5 10.5C386.527 7.65054 388.027 7.98387 389 11.5C390 8.83333 391 8.83333 392 11.5C393.7 9.70108 395.533 9.36774 397.5 10.5C398.828 12.4436 399.161 14.4436 398.5 16.5C395.402 17.6325 392.235 17.6325 389 16.5C388.333 17.1667 387.667 17.8333 387 18.5C387.077 17.2624 386.911 16.2624 386.5 15.5C384.674 17.7808 382.674 17.7808 380.5 15.5C380.167 16.1667 379.833 16.8333 379.5 17.5C378.5 16.8333 377.5 16.1667 376.5 15.5C374.554 17.087 373.054 16.7536 372 14.5C371.395 16.4812 370.395 16.8146 369 15.5C367.149 17.7811 365.482 17.7811 364 15.5C360.831 16.2354 357.498 16.2354 354 15.5C353.692 16.3081 353.192 16.9747 352.5 17.5C351.575 16.3595 350.741 16.3595 350 17.5C349.667 16.8333 349.333 16.1667 349 15.5C344.799 15.5756 338.799 17.909 334 18.5C334.403 15.5145 336.903 10.8478 338.5 8.5Z" fill="#260C0F"/>
<path fill-rule="evenodd" clip-rule="evenodd" d="M397.5 10.5001C395.533 9.36784 393.7 9.70118 392 11.5001C391 8.83343 390 8.83343 389 11.5001C388.027 7.98397 386.527 7.65064 384.5 10.5001C380.658 10.4474 376.825 10.4474 373 10.5001C371.739 10.241 370.739 9.57435 370 8.5001C369.667 9.16677 369.333 9.83343 369 10.5001C367.984 9.36599 367.317 9.69933 367 11.5001C366.333 10.1668 365.667 10.1668 365 11.5001C360.662 7.9476 356.329 7.61426 352 10.5001C350.983 7.97213 349.816 7.97213 348.5 10.5001C345.597 10.3064 342.763 10.3064 340 10.5001C339.283 9.9559 338.783 9.28923 338.5 8.5001C357.662 7.33776 376.996 7.1711 396.5 8.0001C397.252 8.67086 397.586 9.5042 397.5 10.5001Z" fill="#331013"/>
<path fill-rule="evenodd" clip-rule="evenodd" d="M359.5 53.5C404.639 54.1461 436.139 75.1461 454 116.5C464.539 158.894 452.372 193.06 417.5 219C378.02 242.104 340.687 239.104 305.5 210C279.146 183.091 270.979 151.257 281 114.5C296.281 80.0411 322.448 59.7078 359.5 53.5ZM363.5 73.5C359.688 74.3238 355.688 74.8238 351.5 75C317.509 85.1624 299.842 107.996 298.5 143.5C301.785 185.951 324.618 208.951 367 212.5C402.719 211.334 425.386 193.667 435 159.5C439.874 130.904 432.041 107.071 411.5 88C405.992 84.7453 400.325 81.7453 394.5 79C384.583 75.0313 374.25 73.198 363.5 73.5Z" fill="black"/>
<path fill-rule="evenodd" clip-rule="evenodd" d="M366.5 84.5C372.403 85.2711 378.237 86.2711 384 87.5C384.322 96.9256 383.989 106.259 383 115.5C387.167 112 391.333 108.5 395.5 105C396.833 104.333 398.167 104.333 399.5 105C408.669 116.836 417.836 128.669 427 140.5C427.667 142.5 427.667 144.5 427 146.5C417.836 158.331 408.669 170.164 399.5 182C398.167 182.667 396.833 182.667 395.5 182C390.802 178.299 386.469 174.299 382.5 170C389.345 161.319 396.011 152.486 402.5 143.5C396.244 134.57 389.578 125.903 382.5 117.5C377.94 145.087 373.774 172.754 370 200.5C368.352 202.028 366.352 202.695 364 202.5C360.155 202.094 356.321 201.594 352.5 201C351.667 200.167 350.833 199.333 350 198.5C350.573 189.489 351.24 180.489 352 171.5C347.833 175 343.667 178.5 339.5 182C338.167 182.667 336.833 182.667 335.5 182C328.078 171.57 320.244 161.403 312 151.5C310.436 148.629 308.936 145.796 307.5 143C307.667 142.167 307.833 141.333 308 140.5C316.695 129.145 325.362 117.812 334 106.5C335.466 104.675 337.299 104.175 339.5 105C344.007 108.676 348.341 112.51 352.5 116.5C345.743 125.248 339.41 134.248 333.5 143.5C339.385 152.894 345.885 161.894 353 170.5C356.613 141.533 361.113 112.867 366.5 84.5Z" fill="black"/>
<path fill-rule="evenodd" clip-rule="evenodd" d="M104.5 213.5C135.835 213.333 167.168 213.5 198.5 214C199.667 214.5 200.5 215.333 201 216.5C201.667 221.167 201.667 225.833 201 230.5C199.764 232.538 197.931 233.705 195.5 234C165.167 234.667 134.833 234.667 104.5 234C102.112 231.694 101.112 228.861 101.5 225.5C101.444 221.109 102.444 217.109 104.5 213.5Z" fill="black"/>
<path fill-rule="evenodd" clip-rule="evenodd" d="M71.5 214.5C77.1667 214.5 82.8333 214.5 88.5 214.5C88.5 220.5 88.5 226.5 88.5 232.5C84.8121 232.781 81.1454 233.281 77.5 234C73.3381 238.969 71.1714 244.803 71 251.5C67.6667 254.167 67.6667 256.833 71 259.5C71.6929 264.737 73.0263 269.737 75 274.5C78.7846 277.964 83.2846 279.298 88.5 278.5C88.5 284.5 88.5 290.5 88.5 296.5C66.6197 299.419 54.7863 290.419 53 269.5C48.9977 265.554 44.1644 263.888 38.5 264.5C38.5 258.5 38.5 252.5 38.5 246.5C44.3275 247.503 49.1608 245.836 53 241.5C53.2344 231.739 57.0678 223.906 64.5 218C66.7133 216.384 69.0466 215.217 71.5 214.5Z" fill="black"/>
<path fill-rule="evenodd" clip-rule="evenodd" d="M104.5 245.5C135.835 245.333 167.168 245.5 198.5 246C199.667 246.5 200.5 247.333 201 248.5C201.667 253.167 201.667 257.833 201 262.5C199.764 264.538 197.931 265.705 195.5 266C166.167 266.667 136.833 266.667 107.5 266C104.56 265.788 102.726 264.288 102 261.5C101.058 255.765 101.891 250.432 104.5 245.5Z" fill="black"/>
<path fill-rule="evenodd" clip-rule="evenodd" d="M295.5 269.5C300.844 269.334 306.177 269.501 311.5 270C312 270.5 312.5 271 313 271.5C313.296 294.837 312.963 318.171 312 341.5C302.697 351.804 293.03 361.804 283 371.5C282.169 378.524 282.336 385.524 283.5 392.5C296.64 400.41 300.806 411.743 296 426.5C285.234 442.638 271.401 445.804 254.5 436C246.488 428.621 243.655 419.455 246 408.5C247.076 405.352 248.409 402.352 250 399.5C253.647 396.687 257.147 393.687 260.5 390.5C261.332 380.851 261.832 371.184 262 361.5C272.333 351.167 282.667 340.833 293 330.5C293.333 310.833 293.667 291.167 294 271.5C294.717 270.956 295.217 270.289 295.5 269.5ZM268.5 409.5C266.984 411.199 265.984 413.199 265.5 415.5C266.345 420.844 269.345 422.677 274.5 421C279.765 413.363 277.765 409.53 268.5 409.5Z" fill="black"/>
<path fill-rule="evenodd" clip-rule="evenodd" d="M422.5 270.5C428.5 270.5 434.5 270.5 440.5 270.5C440.171 290.838 440.005 311.171 440 331.5C450.333 341.833 460.667 352.167 471 362.5C471.168 372.517 471.668 382.517 472.5 392.5C490.357 403.096 493.19 416.763 481 433.5C467.117 443.845 454.45 442.512 443 429.5C434.92 413.491 438.753 401.158 454.5 392.5C455.664 385.524 455.831 378.524 455 371.5C444.667 361.167 434.333 350.833 424 340.5C423.167 317.173 422.667 293.839 422.5 270.5ZM461.5 408.5C469.454 408.604 471.954 412.271 469 419.5C462.956 424.097 458.789 422.763 456.5 415.5C457.06 412.288 458.727 409.955 461.5 408.5Z" fill="black"/>
<path fill-rule="evenodd" clip-rule="evenodd" d="M104.5 277.5C125.169 277.333 145.836 277.5 166.5 278C167.667 278.5 168.5 279.333 169 280.5C169.667 285.167 169.667 289.833 169 294.5C168.5 295.667 167.667 296.5 166.5 297C145.833 297.667 125.167 297.667 104.5 297C102.365 294.656 101.365 291.823 101.5 288.5C101.552 284.451 102.552 280.785 104.5 277.5Z" fill="black"/>
<path fill-rule="evenodd" clip-rule="evenodd" d="M183.5 277.5C188.511 277.334 193.511 277.501 198.5 278C199.308 278.308 199.975 278.808 200.5 279.5C205.538 295.63 199.871 301.463 183.5 297C182.692 296.692 182.025 296.192 181.5 295.5C180.386 290.554 180.219 285.554 181 280.5C181.698 279.309 182.531 278.309 183.5 277.5Z" fill="black"/>
<path fill-rule="evenodd" clip-rule="evenodd" d="M103.5 309.5C135.168 309.333 166.835 309.5 198.5 310C199.667 310.5 200.5 311.333 201 312.5C201.667 317.5 201.667 322.5 201 327.5C200.5 328.667 199.667 329.5 198.5 330C145.166 330.377 91.8324 330.211 38.5 329.5C38.5 323.167 38.5 316.833 38.5 310.5C60.3398 310.831 82.0064 310.497 103.5 309.5Z" fill="black"/>
<path fill-rule="evenodd" clip-rule="evenodd" d="M103.5 341.5C124.503 341.333 145.503 341.5 166.5 342C167.667 342.5 168.5 343.333 169 344.5C169.667 349.167 169.667 353.833 169 358.5C168.692 359.308 168.192 359.975 167.5 360.5C135.205 361.496 102.872 361.496 70.5 360.5C70.5 354.5 70.5 348.5 70.5 342.5C81.6794 342.828 92.6794 342.495 103.5 341.5Z" fill="black"/>
<path fill-rule="evenodd" clip-rule="evenodd" d="M183.5 341.501C196.902 339.128 207.402 343.461 215 354.501C216.701 359.745 218.035 365.078 219 370.501C220.171 371.894 221.671 372.728 223.5 373.001C226.167 373.334 228.833 373.668 231.5 374.001C234.866 379.503 235.366 385.336 233 391.501C232.5 392.001 232 392.501 231.5 393.001C227.75 393.261 224.084 393.928 220.5 395.001C218.538 401.941 216.038 408.774 213 415.501C204.155 425.51 193.488 428.177 181 423.501C180.333 418.168 180.333 412.834 181 407.501C181.903 406.3 183.069 405.466 184.5 405.001C188.421 404.798 192.255 404.298 196 403.501C196.405 396.266 198.572 389.599 202.5 383.501C198.57 377.44 196.403 370.773 196 363.501C192.022 361.944 187.855 361.111 183.5 361.001C182.333 360.501 181.5 359.668 181 358.501C180.333 353.834 180.333 349.168 181 344.501C181.698 343.31 182.531 342.31 183.5 341.501Z" fill="black"/>
<path fill-rule="evenodd" clip-rule="evenodd" d="M103.5 373.5C124.503 373.333 145.503 373.5 166.5 374C167.667 374.5 168.5 375.333 169 376.5C169.667 381.167 169.667 385.833 169 390.5C168.5 391.667 167.667 392.5 166.5 393C145.833 393.667 125.167 393.667 104.5 393C102.078 390.575 101.078 387.575 101.5 384C101.481 380.331 102.148 376.831 103.5 373.5Z" fill="black"/>
<path fill-rule="evenodd" clip-rule="evenodd" d="M70.5 374.5C76.5 374.5 82.5 374.5 88.5 374.5C88.5 380.5 88.5 386.5 88.5 392.5C82.5 392.5 76.5 392.5 70.5 392.5C70.5 386.5 70.5 380.5 70.5 374.5Z" fill="black"/>
<path fill-rule="evenodd" clip-rule="evenodd" d="M330.5 403.5C329.833 402.167 329.833 402.167 330.5 403.5Z" fill="black"/>
<path fill-rule="evenodd" clip-rule="evenodd" d="M103.5 404.5C124.503 404.333 145.503 404.5 166.5 405C167.416 405.374 168.25 405.874 169 406.5C169.667 412.167 169.667 417.833 169 423.5C168.5 424 168 424.5 167.5 425C135.833 425.667 104.167 425.667 72.4999 425C71.3332 424.5 70.4999 423.667 69.9999 422.5C69.2154 417.113 69.3821 411.78 70.4999 406.5C81.6592 405.833 92.6592 405.167 103.5 404.5Z" fill="black"/>
<path fill-rule="evenodd" clip-rule="evenodd" d="M359.5 421.5C365.176 421.334 370.843 421.501 376.5 422C382.834 425.179 388.001 429.679 392 435.5C397.665 454.096 391.499 466.596 373.5 473C348.276 473.462 338.11 461.296 343 436.5C347.395 430.271 352.895 425.271 359.5 421.5ZM363.5 441.5C359.445 450.233 362.112 454.067 371.5 453C375.603 444.363 372.936 440.53 363.5 441.5Z" fill="black"/>
</mask>
<g mask="url(#mask0_364_1075)">
<rect width="512" height="512" fill="url(#paint0_linear_364_1075)"/>
</g>
<defs>
<linearGradient id="paint0_linear_364_1075" x1="256" y1="0" x2="256" y2="512" gradientUnits="userSpaceOnUse">
<stop stop-color="#F15261"/>
<stop offset="0.510417" stop-color="#CC6ECD"/>
<stop offset="1" stop-color="#30BCE6"/>
</linearGradient>
</defs>
</svg>
