<svg width="1189" height="1189" viewBox="0 0 1189 1189" fill="none" xmlns="http://www.w3.org/2000/svg">
<mask id="mask0_364_1205" style="mask-type:alpha" maskUnits="userSpaceOnUse" x="0" y="0" width="1189" height="1189">
<g clip-path="url(#clip0_364_1205)">
<path fill-rule="evenodd" clip-rule="evenodd" d="M479.548 -1.16016C489.61 -1.16016 499.675 -1.16016 509.737 -1.16016C541.731 15.4763 549.859 40.247 534.121 73.1523C466.836 165.595 399.105 257.712 330.923 349.502C508.184 352.212 685.449 352.598 862.722 350.663C794.215 257.385 725.708 164.108 657.201 70.8301C643.556 37.7866 652.459 13.7898 683.907 -1.16016C693.196 -1.16016 702.485 -1.16016 711.774 -1.16016C723.716 3.49192 733.392 11.2328 740.803 22.0625C820.473 131.535 900.591 240.681 981.157 349.502C1039.97 351.436 1098.8 352.598 1157.65 352.985C1171.47 356.759 1181.54 364.887 1187.84 377.369C1187.84 453.231 1187.84 529.09 1187.84 604.951C1182.85 614.962 1175.11 622.317 1164.62 627.013C1147.79 630.243 1130.76 631.404 1113.53 630.496C1108.15 684.709 1102.34 738.895 1096.11 793.055C1094.02 832.31 1073.5 849.727 1034.57 845.306C1006.92 835.239 995.69 815.499 1000.9 786.088C1008.9 713.252 1017.42 640.486 1026.44 567.795C1030.59 555.208 1038.72 546.307 1050.83 541.089C1066.1 537.891 1081.58 536.73 1097.27 537.605C1097.27 506.643 1097.27 475.678 1097.27 444.715C762.864 444.715 428.458 444.715 94.0518 444.715C94.0518 475.678 94.0518 506.643 94.0518 537.605C362.661 537.218 631.271 537.605 899.878 538.767C926.988 549.233 937.438 568.972 931.229 597.984C926.972 614.628 916.522 625.078 899.878 629.335C657.584 629.723 415.295 630.884 173.009 632.818C189.253 761.221 205.122 889.721 220.615 1018.31C232.491 1064.36 262.293 1089.52 310.022 1093.79C508.237 1096.05 706.405 1095.28 904.522 1091.47C948.471 1077.7 972.855 1047.9 977.674 1002.06C987.546 979.026 1004.96 968.576 1029.92 970.708C1048.94 973.46 1061.71 983.91 1068.24 1002.06C1068.2 1078.39 1034.53 1134.51 967.224 1170.42C949.53 1177.48 931.728 1183.29 913.812 1187.84C703.259 1187.84 492.708 1187.84 282.155 1187.84C195.223 1168.64 142.972 1115.22 125.402 1027.6C109.34 895.234 93.471 762.865 77.7959 630.496C63.0679 630.882 48.3603 630.496 33.6729 629.335C27.8082 628.35 23.1636 625.643 19.7393 621.207C18.6407 617.942 16.3184 616.393 12.7725 616.562C7.55714 611.572 4.07374 605.378 2.32227 597.984C0.774088 526.767 0.774088 455.553 2.32227 384.336C3.30647 378.472 6.01576 373.828 10.4502 370.402C14.3206 368.08 17.417 364.984 19.7393 361.113C23.1636 356.678 27.8082 353.97 33.6729 352.985C93.2928 352.598 152.898 351.436 212.487 349.502C293.706 237.708 375.371 126.238 457.486 15.0957C464.611 9.09822 471.966 3.67961 479.548 -1.16016Z" fill="#020404"/>
<path opacity="0.957" fill-rule="evenodd" clip-rule="evenodd" d="M19.7393 361.113C17.417 364.984 14.3206 368.08 10.4502 370.402C11.2243 364.984 14.3206 361.887 19.7393 361.113Z" fill="#2E949C"/>
<path opacity="0.6" fill-rule="evenodd" clip-rule="evenodd" d="M12.7725 616.561C16.3184 616.392 18.6407 617.941 19.7393 621.206C16.1933 621.375 13.871 619.826 12.7725 616.561Z" fill="#25BDCB"/>
<path fill-rule="evenodd" clip-rule="evenodd" d="M567.794 992.77C566.696 989.504 564.373 987.955 560.827 988.125C555.611 983.134 552.128 976.941 550.377 969.547C548.828 898.33 548.828 827.115 550.377 755.898C557.79 734.564 572.884 723.728 595.661 723.387C618.438 723.728 633.533 734.564 640.945 755.898C642.494 827.115 642.494 898.33 640.945 969.547C630.479 996.657 610.74 1007.11 581.728 1000.9C575.864 999.913 571.219 997.205 567.794 992.77Z" fill="#020405"/>
<path opacity="0.999" fill-rule="evenodd" clip-rule="evenodd" d="M767.509 723.385C796.505 718.322 816.244 729.158 826.727 755.897C828.276 827.113 828.276 898.328 826.727 969.545C816.26 996.655 796.521 1007.11 767.509 1000.9C750.865 996.639 740.415 986.189 736.158 969.545C734.609 898.328 734.609 827.113 736.158 755.897C740.842 739.218 751.293 728.382 767.509 723.385Z" fill="#010102"/>
<path fill-rule="evenodd" clip-rule="evenodd" d="M395.946 723.385C424.942 718.322 444.681 729.158 455.164 755.897C456.713 827.113 456.713 898.328 455.164 969.545C444.698 996.655 424.958 1007.11 395.946 1000.9C379.303 996.639 368.853 986.189 364.596 969.545C363.047 898.328 363.047 827.113 364.596 755.897C369.28 739.218 379.73 728.382 395.946 723.385Z" fill="#000001"/>
<path opacity="0.722" fill-rule="evenodd" clip-rule="evenodd" d="M560.827 988.124C564.373 987.954 566.696 989.503 567.794 992.768C564.248 992.938 561.926 991.389 560.827 988.124Z" fill="#28819D"/>
</g>
</mask>
<g mask="url(#mask0_364_1205)">
<rect width="1189" height="1246.47" fill="url(#paint0_linear_364_1205)"/>
</g>
<defs>
<linearGradient id="paint0_linear_364_1205" x1="594.5" y1="0" x2="594.5" y2="1246.47" gradientUnits="userSpaceOnUse">
<stop stop-color="#DDBD8D"/>
<stop offset="0.9999" stop-color="#8D6B3B"/>
<stop offset="1" stop-color="#D9D9D9" stop-opacity="0"/>
</linearGradient>
<clipPath id="clip0_364_1205">
<rect width="1189" height="1189" fill="white"/>
</clipPath>
</defs>
</svg>
