<svg width="1315" height="1315" viewBox="0 0 1315 1315" fill="none" xmlns="http://www.w3.org/2000/svg">
<mask id="mask0_364_1222" style="mask-type:alpha" maskUnits="userSpaceOnUse" x="0" y="0" width="1315" height="1315">
<g clip-path="url(#clip0_364_1222)">
<path fill-rule="evenodd" clip-rule="evenodd" d="M1095.41 -1.28516C1139.92 -1.28516 1184.44 -1.28516 1228.96 -1.28516C1242.26 1.00718 1255.96 3.14747 1270.05 5.13574C1286.34 9.43728 1297.9 19.2827 1304.73 34.6719C1308.74 51.1063 1311.74 67.3725 1313.72 83.4707C1313.72 127.989 1313.72 172.507 1313.72 217.025C1295.6 447.163 1200.57 638.506 1028.63 791.054C1001.28 812.433 973.028 832.553 943.872 851.41C986.315 950.202 975.612 1042.66 911.768 1128.79C860.83 1179.73 809.889 1230.67 758.951 1281.61C726.019 1297.73 699.907 1290.46 680.616 1259.78C678.065 1252.31 676.781 1244.61 676.763 1236.66C692.53 1148.09 674.123 1067.61 621.543 995.238C590.733 1007.79 559.487 1019.35 527.798 1029.91C475.147 1043.69 427.203 1034.27 383.97 1001.66C359.571 977.26 335.171 952.86 310.772 928.461C280.301 888.749 270.027 844.232 279.951 794.906C290.852 759.632 303.264 724.96 317.193 690.888C244.809 638.306 164.334 619.901 75.7669 635.668C37.4783 632.904 19.9278 612.358 23.1155 574.027C24.2401 566.641 26.8086 559.791 30.8206 553.48C81.7597 502.542 132.699 451.601 183.638 400.663C269.768 336.819 362.229 326.116 461.021 368.559C588.211 175.15 766.286 56.5769 995.24 12.8408C1028.86 7.07105 1062.25 2.36238 1095.41 -1.28516ZM1100.54 104.018C1136.5 104.018 1172.46 104.018 1208.41 104.018C1212.85 185.821 1204.71 266.297 1184.01 345.443C1111.67 273.1 1039.33 200.759 966.988 128.417C1011.16 116.637 1055.67 108.504 1100.54 104.018ZM851.411 165.658C950.507 260.898 1048.53 357.641 1145.49 455.883C1092.05 586.096 1005.16 688.401 884.8 762.802C807.657 807.363 727.18 845.033 643.374 875.81C590.163 896.544 536.228 914.949 481.568 931.029C473.354 930.716 465.649 928.577 458.452 924.608C435.843 904.57 414.012 883.594 392.959 861.684C383.217 849.576 379.794 835.879 382.686 820.59C420.079 706.426 464.596 595.129 516.241 486.703C590.001 339.739 701.725 232.724 851.411 165.658ZM327.466 448.178C354.901 445.984 381.44 449.837 407.085 459.735C408.259 460.799 409.117 462.083 409.654 463.588C390.776 504.761 371.942 545.855 353.15 586.869C307.225 558.355 257.571 539.093 204.185 529.081C225.009 505.673 248.124 485.126 273.531 467.44C290.983 458.634 308.961 452.213 327.466 448.178ZM728.5 448.178C758.38 444.061 655.142 545.937 665.5 574.027C669.671 610.195 797.847 589.361 762 596C714.889 584.823 695.927 503.349 716.5 459.735C724.601 451.999 728.5 404.68 728.5 448.178ZM846.275 902.777C848.833 902.556 850.972 903.414 852.696 905.346C872.618 958.269 866.624 1007.93 834.717 1054.31C818.531 1073.07 801.411 1091.05 783.35 1108.25C773.339 1054.86 754.076 1005.21 725.562 959.281C766.263 941.066 806.501 922.233 846.275 902.777Z" fill="black"/>
<path opacity="0.998" fill-rule="evenodd" clip-rule="evenodd" d="M758.95 373.696C855.353 367.869 914.854 411.531 937.451 504.683C944.064 596.386 903.397 655.032 815.454 680.615C733.988 691.472 675.345 660.222 639.521 586.87C614.824 507.718 635.8 443.938 702.446 395.527C720.727 385.883 739.561 378.607 758.95 373.696ZM771.792 478.999C761.914 483.25 752.924 489.242 744.824 496.978C724.251 540.591 737.522 567.988 784.633 579.165C820.48 572.526 836.319 551.124 832.148 514.956C821.79 486.866 801.672 474.882 771.792 478.999Z" fill="black"/>
<path fill-rule="evenodd" clip-rule="evenodd" d="M286.372 992.671C288.329 997.197 291.755 999.765 296.646 1000.38C344.7 1044.42 360.539 1098.36 344.16 1162.18C327.705 1212.03 294.745 1245.84 245.278 1263.63C187.156 1284.79 128.084 1301.48 68.0615 1313.72C56.0758 1313.72 44.0903 1313.72 32.1045 1313.72C26.2779 1309.93 20.285 1306.07 14.126 1302.16C8.34219 1295.13 3.20547 1287.86 -1.28418 1280.33C-1.28418 1268.34 -1.28418 1256.36 -1.28418 1244.37C10.4217 1189.01 25.4038 1134.22 43.6621 1080C81.5477 979.935 152.178 944.407 255.552 973.409C267.289 977.965 277.563 984.386 286.372 992.671ZM183.638 1067.15C230.64 1067.48 249.903 1090.6 241.426 1136.5C235.655 1149.89 225.81 1158.87 211.89 1163.47C181.478 1176.05 150.658 1185.04 119.429 1190.43C127.985 1160.06 137.831 1130.09 148.965 1100.54C155.238 1083.56 166.795 1072.43 183.638 1067.15Z" fill="black"/>
<path opacity="0.612" fill-rule="evenodd" clip-rule="evenodd" d="M286.372 992.672C291.262 993.283 294.688 995.852 296.646 1000.38C291.755 999.766 288.329 997.197 286.372 992.672Z" fill="#283143"/>
</g>
</mask>
<g mask="url(#mask0_364_1222)">
<rect x="-1" y="-1" width="1417" height="1426" fill="url(#paint0_linear_364_1222)"/>
</g>
<defs>
<linearGradient id="paint0_linear_364_1222" x1="707.5" y1="-1" x2="707.5" y2="1425" gradientUnits="userSpaceOnUse">
<stop stop-color="#DDBD8D"/>
<stop offset="0.9999" stop-color="#8D6B3B"/>
<stop offset="1" stop-color="#D9D9D9" stop-opacity="0"/>
</linearGradient>
<clipPath id="clip0_364_1222">
<rect width="1315" height="1315" fill="white"/>
</clipPath>
</defs>
</svg>
