<svg width="512" height="512" viewBox="0 0 512 512" fill="none" xmlns="http://www.w3.org/2000/svg">
<mask id="mask0_364_1145" style="mask-type:alpha" maskUnits="userSpaceOnUse" x="0" y="0" width="512" height="512">
<g clip-path="url(#clip0_364_1145)">
<path opacity="0.998" fill-rule="evenodd" clip-rule="evenodd" d="M299.5 -0.5C302.167 -0.5 304.833 -0.5 307.5 -0.5C326.202 7.46247 345.202 14.9625 364.5 22C365.333 22.8333 366.167 23.6667 367 24.5C367.62 35.9117 367.62 47.2451 367 58.5C381.618 69.7835 394.951 82.4501 407 96.5C417.181 95.5231 427.347 94.5231 437.5 93.5C439.614 94.0339 441.448 95.0339 443 96.5C452.075 116.643 460.575 136.976 468.5 157.5C468.333 158.833 468.167 160.167 468 161.5C459.577 168.785 451.744 176.618 444.5 185C447.671 202.338 448.004 219.671 445.5 237C453.963 243.794 462.13 250.961 470 258.5C470.875 259.873 471.375 261.373 471.5 263C463.867 283.565 456.034 304.065 448 324.5C445.694 326.888 442.861 327.888 439.5 327.5C430.181 326.479 420.848 326.312 411.5 327C401.056 340.945 389.056 353.445 375.5 364.5C374.806 374.498 375.139 384.498 376.5 394.5C376.522 396.965 376.022 399.298 375 401.5C356.774 410.198 338.274 418.198 319.5 425.5C319.667 438.837 319.5 452.171 319 465.5C318.109 470.288 315.942 474.288 312.5 477.5C311.094 477.973 310.427 478.973 310.5 480.5C309.833 480.833 309.167 481.167 308.5 481.5C306.973 481.427 305.973 482.094 305.5 483.5C304.158 484.793 302.491 485.626 300.5 486C287.838 486.5 275.171 486.667 262.5 486.5C262.666 493.508 262.5 500.508 262 507.5C261.338 508.984 260.504 510.317 259.5 511.5C256.833 511.5 254.167 511.5 251.5 511.5C250.496 510.317 249.662 508.984 249 507.5C248.5 500.508 248.334 493.508 248.5 486.5C235.829 486.667 223.162 486.5 210.5 486C206.8 485.157 203.8 483.324 201.5 480.5C200.833 479.167 199.833 478.167 198.5 477.5C195.058 474.288 192.891 470.288 192 465.5C191.5 451.837 191.333 438.171 191.5 424.5C175.146 419.404 159.313 413.071 144 405.5C143.189 394.12 143.355 382.787 144.5 371.5C129.725 360.892 116.725 348.392 105.5 334C96.3494 334.236 87.1828 334.736 78 335.5C75.5 335.333 73 335.167 70.5 335C69.6919 334.692 69.0253 334.192 68.5 333.5C58.8511 313.374 50.1844 292.874 42.5 272C42.6667 270.833 42.8333 269.667 43 268.5C50.8997 260.6 58.7331 252.767 66.5 245C63.3292 227.662 62.9959 210.329 65.5 193C57.2396 185.951 49.0729 178.784 41 171.5C39.627 169.305 39.2937 166.971 40 164.5C47.6667 144.833 55.3333 125.167 63 105.5C63.9025 104.299 65.0692 103.465 66.5 103C77.4988 103.039 88.4988 103.039 99.5 103C110.26 88.9044 122.427 76.071 136 64.5C136.14 54.8177 135.64 45.151 134.5 35.5C134.353 32.7466 135.02 30.2466 136.5 28C156.721 18.4714 177.221 9.63805 198 1.5C199.627 1.62515 201.127 2.12515 202.5 3C209.865 10.0304 216.865 17.3637 223.5 25C241.81 23.5361 260.143 23.2028 278.5 24C285.336 15.6666 292.336 7.49992 299.5 -0.5ZM304.5 14.5C320.934 20.0907 337.268 26.0907 353.5 32.5C353.126 44.2068 353.626 55.8734 355 67.5C371.747 78.2464 385.914 91.7464 397.5 108C400.88 109.084 404.38 109.584 408 109.5C416.22 108.944 424.386 108.444 432.5 108C439.884 123.482 446.884 139.149 453.5 155C447.012 162.821 439.846 169.988 432 176.5C431.042 178.199 430.542 180.033 430.5 182C433.537 202.746 434.371 223.58 433 244.5C441.306 250.972 449.139 257.972 456.5 265.5C450.235 281.127 444.069 296.794 438 312.5C428.896 313.703 419.729 313.703 410.5 312.5C408.035 312.478 405.702 312.978 403.5 314C392.42 331.082 378.586 345.582 362 357.5C360.964 359.87 360.464 362.37 360.5 365C361.513 374.16 362.013 383.327 362 392.5C347.99 398.923 333.823 404.923 319.5 410.5C319.333 396.163 319.5 381.829 320 367.5C322.104 351.177 328.104 336.51 338 323.5C385.047 281.352 399.381 230.019 381 169.5C355.573 110.851 310.74 82.0172 246.5 83C180.61 90.8903 139.777 127.057 124 191.5C116.178 244.514 132.512 288.514 173 323.5C183.288 336.354 189.288 351.02 191 367.5C191.667 381.833 191.667 396.167 191 410.5C179.648 405.739 168.148 401.406 156.5 397.5C156.916 390.509 157.25 383.509 157.5 376.5C157.609 371.722 157.109 367.056 156 362.5C138.918 351.42 124.418 337.586 112.5 321C111 320.5 109.5 320 108 319.5C97.8655 321.141 87.6989 321.474 77.5 320.5C70.9708 305.275 64.3041 290.108 57.5 275C64.6229 266.876 72.1229 259.042 80 251.5C78.741 239.065 77.9077 226.565 77.5 214C77.9889 204.494 78.1556 194.994 78 185.5C69.8432 178.842 62.0099 171.842 54.5 164.5C60.74 148.61 67.0733 132.777 73.5 117C83.2143 116.193 92.8809 116.359 102.5 117.5C104.115 116.846 105.782 116.346 107.5 116C118.58 98.9185 132.414 84.4185 149 72.5C150.036 70.1299 150.536 67.6299 150.5 65C149.884 57.3285 149.218 49.6618 148.5 42C148.544 40.2358 148.878 38.5691 149.5 37C165.074 30.2955 180.574 23.4622 196 16.5C203.5 24 211 31.5 218.5 39C231.144 38.2802 243.811 37.4469 256.5 36.5C265.516 37.2145 274.516 37.7145 283.5 38C291.074 30.6877 298.074 22.8543 304.5 14.5ZM241.5 96.5C286.787 93.4167 323.621 109.417 352 144.5C377.186 180.813 382.186 219.813 367 261.5C362.191 273.125 355.858 283.792 348 293.5C317.462 318.583 303.296 350.916 305.5 390.5C299.167 390.5 292.833 390.5 286.5 390.5C286.333 361.831 286.5 333.165 287 304.5C288.5 301 291 298.5 294.5 297C313.449 296.217 323.783 286.384 325.5 267.5C343.185 258.605 347.352 245.271 338 227.5C326.417 216.273 313.917 215.106 300.5 224C292.178 233.285 290.345 243.785 295 255.5C298.589 261.544 303.755 265.544 310.5 267.5C311.923 274.482 309.256 279.315 302.5 282C288.722 281.808 279.222 287.975 274 300.5C272.531 330.45 272.031 360.45 272.5 390.5C269.167 390.5 265.833 390.5 262.5 390.5C262.333 329.832 262.5 269.166 263 208.5C277.515 202.67 283.181 192.003 280 176.5C272.956 160.565 261.123 155.398 244.5 161C232.166 168.179 227.999 178.679 232 192.5C234.641 200.474 239.974 205.807 248 208.5C248.5 269.166 248.667 329.832 248.5 390.5C245.167 390.5 241.833 390.5 238.5 390.5C238.961 360.125 238.461 329.792 237 299.5C234.985 294.481 231.818 290.315 227.5 287C220.815 283.912 213.815 281.912 206.5 281C201.937 277.471 200.271 272.971 201.5 267.5C215.296 262.252 221.129 252.252 219 237.5C213.633 221.896 202.799 215.729 186.5 219C169.298 227.27 164.798 240.103 173 257.5C176.512 262.18 181.012 265.513 186.5 267.5C186.395 280.819 192.395 289.986 204.5 295C210.053 295.599 215.386 296.933 220.5 299C222.041 300.579 223.208 302.413 224 304.5C224.5 333.165 224.667 361.831 224.5 390.5C218.167 390.5 211.833 390.5 205.5 390.5C207.665 360.791 199.498 334.458 181 311.5C136.276 271.226 124.609 222.892 146 166.5C166.006 126.924 197.839 103.591 241.5 96.5ZM251.5 172.5C265.356 172.216 269.856 178.549 265 191.5C257.268 197.491 250.601 196.491 245 188.5C243.062 181.389 245.229 176.056 251.5 172.5ZM190.5 231.5C203.464 231.592 207.964 237.592 204 249.5C199.36 255.28 193.86 256.446 187.5 253C180.309 244.65 181.309 237.484 190.5 231.5ZM314.5 231.5C327.402 232.219 331.569 238.553 327 250.5C321.549 255.993 315.716 256.493 309.5 252C303.65 243.377 305.317 236.543 314.5 231.5ZM305.5 406.5C305.5 410.167 305.5 413.833 305.5 417.5C287.992 417.17 270.659 417.503 253.5 418.5C248.578 421.684 248.245 425.517 252.5 430C270.164 430.5 287.83 430.667 305.5 430.5C305.5 435.5 305.5 440.5 305.5 445.5C299.824 445.334 294.157 445.501 288.5 446C287.944 446.383 287.611 446.883 287.5 447.5C285.974 448.492 285.307 449.992 285.5 452C285.396 454.145 286.063 455.979 287.5 457.5C293.439 458.457 299.439 458.79 305.5 458.5C305.949 465.429 302.949 470.262 296.5 473C269.167 473.667 241.833 473.667 214.5 473C208.051 470.262 205.051 465.429 205.5 458.5C224.503 458.667 243.503 458.5 262.5 458C267.562 454.126 267.562 450.293 262.5 446.5C243.674 445.503 224.674 445.17 205.5 445.5C205.5 440.5 205.5 435.5 205.5 430.5C211.842 430.666 218.175 430.5 224.5 430C228.654 425.601 228.321 421.601 223.5 418C217.509 417.501 211.509 417.334 205.5 417.5C205.5 412.833 205.5 408.167 205.5 403.5C238.833 403.5 272.167 403.5 305.5 403.5C305.5 404.5 305.5 405.5 305.5 406.5Z" fill="#040305"/>
<path opacity="0.953" fill-rule="evenodd" clip-rule="evenodd" d="M305.5 406.5C306.483 410.298 306.817 414.298 306.5 418.5C288.833 418.5 271.167 418.5 253.5 418.5C270.659 417.503 287.992 417.17 305.5 417.5C305.5 413.833 305.5 410.167 305.5 406.5Z" fill="#3A2C56"/>
<path opacity="0.784" fill-rule="evenodd" clip-rule="evenodd" d="M205.5 430.5C205.5 435.5 205.5 440.5 205.5 445.5C224.674 445.17 243.674 445.503 262.5 446.5C243.167 446.5 223.833 446.5 204.5 446.5C204.179 440.974 204.512 435.64 205.5 430.5Z" fill="#714DA0"/>
<path opacity="0.746" fill-rule="evenodd" clip-rule="evenodd" d="M305.5 430.5C306.488 435.64 306.821 440.974 306.5 446.5C300.108 446.249 293.775 446.582 287.5 447.5C287.611 446.883 287.944 446.383 288.5 446C294.157 445.501 299.824 445.334 305.5 445.5C305.5 440.5 305.5 435.5 305.5 430.5Z" fill="#7854B4"/>
<path opacity="0.01" fill-rule="evenodd" clip-rule="evenodd" d="M198.5 477.5C199.833 478.167 200.833 479.167 201.5 480.5C199.5 480.5 198.5 479.5 198.5 477.5Z" fill="#8767D4"/>
<path opacity="0.01" fill-rule="evenodd" clip-rule="evenodd" d="M312.5 477.5C312.573 479.027 311.906 480.027 310.5 480.5C310.427 478.973 311.094 477.973 312.5 477.5Z" fill="#906ADF"/>
<path opacity="0.012" fill-rule="evenodd" clip-rule="evenodd" d="M308.5 481.5C308.027 482.906 307.027 483.573 305.5 483.5C305.973 482.094 306.973 481.427 308.5 481.5Z" fill="#8F5CD2"/>
</g>
</mask>
<g mask="url(#mask0_364_1145)">
<rect x="24" width="512" height="512" fill="url(#paint0_linear_364_1145)"/>
</g>
<defs>
<linearGradient id="paint0_linear_364_1145" x1="280" y1="0" x2="280" y2="512" gradientUnits="userSpaceOnUse">
<stop stop-color="#F15261"/>
<stop offset="0.510417" stop-color="#CC6ECD"/>
<stop offset="1" stop-color="#30BCE6"/>
</linearGradient>
<clipPath id="clip0_364_1145">
<rect width="512" height="512" fill="white"/>
</clipPath>
</defs>
</svg>
