<svg width="1429" height="1429" viewBox="0 0 1429 1429" fill="none" xmlns="http://www.w3.org/2000/svg">
<g clip-path="url(#clip0_364_1233)">
<mask id="mask0_364_1233" style="mask-type:alpha" maskUnits="userSpaceOnUse" x="-2" y="99" width="1430" height="1229">
<path fill-rule="evenodd" clip-rule="evenodd" d="M1427.61 459.121C1427.61 702.869 1427.61 946.62 1427.61 1190.37C1409.5 1262.89 1363.92 1308.01 1290.85 1325.73C905.686 1327.59 520.525 1327.59 135.365 1325.73C62.2945 1308.01 16.7078 1262.89 -1.39453 1190.37C-1.39453 946.62 -1.39453 702.869 -1.39453 459.121C16.6971 386.605 62.2836 341.485 135.365 323.757C234.907 322.361 334.454 321.895 434.004 322.361C420.233 247.856 440.7 185.058 495.406 133.968C518.108 117.503 543.228 106.339 570.764 100.476C665.658 98.6149 760.553 98.6149 855.447 100.476C928.48 117.687 973.599 162.808 990.812 235.84C992.207 264.666 992.67 293.505 992.207 322.361C1091.76 321.895 1191.3 322.361 1290.85 323.757C1363.92 341.474 1409.5 386.597 1427.61 459.121ZM601.465 210.721C681.575 209.466 761.585 210.861 841.492 214.907C858.704 220.955 870.332 232.584 876.38 249.795C880 273.838 881.395 298.027 880.566 322.361C768.926 322.361 657.285 322.361 545.645 322.361C544.816 298.027 546.211 273.838 549.831 249.795C559.365 226.23 576.577 213.205 601.465 210.721ZM166.066 434.002C536.423 432.634 906.699 434.03 1276.89 438.189C1300.67 447.109 1313.23 464.321 1314.57 489.822C1316.89 536.416 1315.96 582.933 1311.78 629.373C1294.89 701.155 1250.7 746.275 1179.21 764.737C1154.18 767.824 1129.06 769.22 1103.85 768.924C1103.85 731.711 1103.85 694.496 1103.85 657.283C1066.64 657.283 1029.42 657.283 992.207 657.283C992.207 694.496 992.207 731.711 992.207 768.924C806.138 768.924 620.073 768.924 434.004 768.924C434.004 731.711 434.004 694.496 434.004 657.283C396.791 657.283 359.576 657.283 322.363 657.283C322.363 694.496 322.363 731.711 322.363 768.924C233.71 779.008 168.121 745.516 125.597 668.447C117.017 646.945 112.365 624.617 111.642 601.463C109.133 558.554 110.063 515.759 114.433 473.076C123.967 449.512 141.178 436.486 166.066 434.002ZM110.246 827.535C173.815 872.086 244.52 889.761 322.363 880.565C322.363 917.777 322.363 954.993 322.363 992.205C359.576 992.205 396.791 992.205 434.004 992.205C434.004 954.993 434.004 917.777 434.004 880.565C620.073 880.565 806.138 880.565 992.207 880.565C992.207 917.777 992.207 954.993 992.207 992.205C1029.42 992.205 1066.64 992.205 1103.85 992.205C1103.85 954.993 1103.85 917.777 1103.85 880.565C1181.28 889.937 1251.52 872.259 1314.57 827.535C1316.43 938.247 1316.43 1048.95 1314.57 1159.67C1313.23 1185.17 1300.67 1202.38 1276.89 1211.3C906.699 1215.92 536.423 1216.85 166.066 1214.09C133.039 1210.83 114.898 1192.69 111.642 1159.67C110.246 1048.96 109.781 938.249 110.246 827.535Z" fill="black"/>
</mask>
<g mask="url(#mask0_364_1233)">
<rect x="-1.28711" y="-10.2891" width="1430.29" height="1439.29" fill="url(#paint0_linear_364_1233)"/>
</g>
</g>
<defs>
<linearGradient id="paint0_linear_364_1233" x1="713.856" y1="-10.2891" x2="713.856" y2="1429" gradientUnits="userSpaceOnUse">
<stop stop-color="#DDBD8D"/>
<stop offset="0.9999" stop-color="#8D6B3B"/>
<stop offset="1" stop-color="#D9D9D9" stop-opacity="0"/>
</linearGradient>
<clipPath id="clip0_364_1233">
<rect width="1429" height="1429" fill="white"/>
</clipPath>
</defs>
</svg>
