<svg width="512" height="512" viewBox="0 0 512 512" fill="none" xmlns="http://www.w3.org/2000/svg">
<mask id="mask0_364_1122" style="mask-type:alpha" maskUnits="userSpaceOnUse" x="0" y="0" width="512" height="512">
<path opacity="0.999" fill-rule="evenodd" clip-rule="evenodd" d="M254.5 311.5C225.824 298.563 200.657 280.563 179 257.5C178.601 257.728 178.435 258.062 178.5 258.5C149.244 226.632 132.411 188.965 128 145.5C127.333 103.167 127.333 60.8333 128 18.5C130.827 15.3353 134.327 14.1687 138.5 15C147.944 20.1071 157.611 24.7737 167.5 29C184.86 34.8399 202.193 34.8399 219.5 29C231.859 24.2161 244.025 19.0494 256 13.5C266.305 18.7356 276.805 23.569 287.5 28C306.509 33.946 325.509 33.946 344.5 28C355.105 23.6969 365.438 18.8636 375.5 13.5C378.302 14.712 380.802 16.3787 383 18.5C383.667 60.8333 383.667 103.167 383 145.5C374.696 211.42 342.529 261.92 286.5 297C277.833 301.667 269.167 306.333 260.5 311C258.527 311.495 256.527 311.662 254.5 311.5ZM270.5 285.5C266.22 287.64 261.886 289.807 257.5 292C256.167 292.667 254.833 292.667 253.5 292C240.502 285.804 228.168 278.637 216.5 270.5C170.024 233.21 146.19 184.543 145 124.5C144.333 96.8333 144.333 69.1667 145 41.5C145.333 41.1667 145.667 40.8333 146 40.5C175.899 54.9739 206.399 56.1406 237.5 44C243.128 40.695 248.962 37.8617 255 35.5C265.515 40.6711 276.348 45.1711 287.5 49C305.417 54.3925 323.417 54.7258 341.5 50C349.188 47.4851 356.855 44.9851 364.5 42.5C364.204 74.1791 364.537 105.846 365.5 137.5C361.236 190.199 338.903 233.366 298.5 267C289.533 273.815 280.199 279.982 270.5 285.5ZM252.5 70.5C258.496 71.1564 264.162 72.9898 269.5 76C289.995 83.6207 310.995 86.1207 332.5 83.5C332.833 84.3333 333.167 85.1667 333.5 86C332.477 105.493 332.31 124.993 333 144.5C326.542 186.265 306.709 220.099 273.5 246C267.866 250.136 261.866 253.636 255.5 256.5C217.028 235.285 192.194 203.285 181 160.5C177.158 143.712 175.658 126.712 176.5 109.5C176.345 100.343 176.845 91.3435 178 82.5C204.136 86.0485 228.969 82.0485 252.5 70.5Z" fill="#010001"/>
<path fill-rule="evenodd" clip-rule="evenodd" d="M255.5 48.5C283.105 63.1838 312.272 67.5171 343 61.5C347.357 61.8694 350.691 63.8694 353 67.5C354.097 96.8828 353.43 126.216 351 155.5C339.137 207.021 310.303 246.188 264.5 273C260.106 275.374 255.44 276.041 250.5 275C198.902 246.034 168.402 202.201 159 143.5C158.833 130.667 158.667 117.833 158.5 105C158.51 91.7769 159.176 78.7769 160.5 66C160.167 65.6667 159.833 65.3333 159.5 65C160.672 64.5814 161.672 63.9147 162.5 63C173.02 63.2231 183.52 64.0564 194 65.5C215.955 64.563 236.455 58.8964 255.5 48.5ZM252.5 70.5C228.969 82.0485 204.136 86.0485 178 82.5C176.845 91.3435 176.345 100.343 176.5 109.5C175.658 126.712 177.158 143.712 181 160.5C192.194 203.285 217.028 235.285 255.5 256.5C261.866 253.636 267.866 250.136 273.5 246C306.709 220.099 326.542 186.265 333 144.5C332.31 124.993 332.477 105.493 333.5 86C333.167 85.1667 332.833 84.3333 332.5 83.5C310.995 86.1207 289.995 83.6207 269.5 76C264.162 72.9898 258.496 71.1564 252.5 70.5Z" fill="black"/>
<path fill-rule="evenodd" clip-rule="evenodd" d="M127.5 257.5C145.272 268.567 163.772 279.567 183 290.5C183.399 290.272 183.565 289.938 183.5 289.5C204.756 300.601 217.922 317.934 223 341.5C223.886 365.826 224.386 390.16 224.5 414.5C230.509 414.334 236.509 414.501 242.5 415C245 416.167 246.833 418 248 420.5C248.667 443.833 248.667 467.167 248 490.5C246.833 493 245 494.833 242.5 496C191.827 496.737 141.16 496.404 90.5 495C89.6667 494.167 88.8333 493.333 88 492.5C87.3333 467.833 87.3333 443.167 88 418.5C88.8333 417.667 89.6667 416.833 90.5 416C97.4921 415.5 104.492 415.334 111.5 415.5C111.924 406.442 109.758 398.109 105 390.5C90 377.5 75 364.5 60 351.5C58 348.167 56 344.833 54 341.5C40.4706 293.916 27.9706 246.082 16.5 198C20.3763 173.224 34.7096 162.891 59.5 167C69.0627 170.686 75.896 177.186 80 186.5C86.9734 210.728 93.4734 235.062 99.5 259.5C105.215 257.1 111.215 255.767 117.5 255.5C121.086 255.55 124.42 256.217 127.5 257.5ZM45.5 183.5C54.4427 182.714 60.6093 186.381 64 194.5C71.3077 222.084 78.8077 249.584 86.5 277C82.405 291.32 85.7383 303.654 96.5 314C112.908 324.066 129.574 333.733 146.5 343C156.164 345.001 160.33 341.167 159 331.5C157.5 330 156 328.5 154.5 327C137.922 318.13 121.755 308.63 106 298.5C98.9913 285.174 102.658 276.507 117 272.5C120.216 273.462 123.382 274.628 126.5 276C145.167 287 163.833 298 182.5 309C197.85 320.194 206.017 335.361 207 354.5C206.886 374.493 206.72 394.493 206.5 414.5C180.148 414.222 153.815 414.555 127.5 415.5C127.666 408.825 127.5 402.158 127 395.5C125.804 390.777 123.804 386.443 121 382.5C107.463 369.961 93.6299 357.794 79.5 346C75.9084 343.079 73.0751 339.579 71 335.5C58.8442 291.21 46.8442 246.877 35 202.5C33.3362 193.15 36.8362 186.817 45.5 183.5ZM103.5 431.5C145.828 432.294 188.162 432.627 230.5 432.5C229.234 447.523 229.234 462.523 230.5 477.5C188.169 478.373 145.835 479.039 103.5 479.5C103.5 463.5 103.5 447.5 103.5 431.5Z" fill="#010102"/>
<path fill-rule="evenodd" clip-rule="evenodd" d="M457.5 165.5C479.361 165.529 491.694 176.362 494.5 198C483.03 246.082 470.53 293.915 457 341.5C453.926 347.808 449.76 353.308 444.5 358C431.667 368.833 418.833 379.667 406 390.5C401.242 398.109 399.076 406.442 399.5 415.5C406.508 415.334 413.508 415.5 420.5 416C421.333 416.833 422.167 417.667 423 418.5C423.667 443.167 423.667 467.833 423 492.5C422.167 493.333 421.333 494.167 420.5 495C369.167 495.667 317.833 495.667 266.5 495C265.667 494.167 264.833 493.333 264 492.5C263.333 467.833 263.333 443.167 264 418.5C264.833 417.667 265.667 416.833 266.5 416C273.492 415.5 280.492 415.334 287.5 415.5C287.333 390.831 287.5 366.164 288 341.5C292.22 320.892 303.053 304.725 320.5 293C341.337 280.747 362.337 268.747 383.5 257C393.123 254.718 402.456 255.551 411.5 259.5C417.482 235.049 423.982 210.716 431 186.5C436.215 174.823 445.049 167.823 457.5 165.5ZM327.5 309.5C346.841 298.163 366.175 286.83 385.5 275.5C392.209 271.858 398.709 272.525 405 277.5C409.659 284.462 409.659 291.462 405 298.5C389.018 308.57 372.852 318.237 356.5 327.5C350.264 332.233 349.931 337.4 355.5 343C356.448 343.483 357.448 343.649 358.5 343.5C360.857 343.663 363.19 343.497 365.5 343C380.337 334.081 395.337 325.414 410.5 317C424.592 307.225 429.259 294.058 424.5 277.5C432.176 249.128 440.01 220.795 448 192.5C453.75 183.577 461.25 181.41 470.5 186C475.525 190.409 477.358 195.909 476 202.5C464.156 246.877 452.156 291.21 440 335.5C437.925 339.579 435.092 343.079 431.5 346C416.407 357.461 402.24 369.961 389 383.5C386.775 387.281 385.109 391.281 384 395.5C383.5 402.158 383.334 408.825 383.5 415.5C356.833 415.5 330.167 415.5 303.5 415.5C303.088 392.468 303.588 369.468 305 346.5C307.821 331.209 315.321 318.876 327.5 309.5ZM279.5 431.5C322.167 431.5 364.833 431.5 407.5 431.5C407.5 447.5 407.5 463.5 407.5 479.5C364.833 479.5 322.167 479.5 279.5 479.5C279.5 463.5 279.5 447.5 279.5 431.5Z" fill="#010102"/>
<path opacity="0.996" fill-rule="evenodd" clip-rule="evenodd" d="M127.5 257.5C146.826 267.158 165.493 277.825 183.5 289.5C183.565 289.938 183.399 290.272 183 290.5C163.772 279.567 145.272 268.567 127.5 257.5Z" fill="#13131E"/>
<path opacity="0.918" fill-rule="evenodd" clip-rule="evenodd" d="M254.5 311.5C225.064 299.777 199.731 282.11 178.5 258.5C178.435 258.062 178.601 257.728 179 257.5C200.657 280.563 225.824 298.563 254.5 311.5Z" fill="#141522"/>
<path opacity="0.914" fill-rule="evenodd" clip-rule="evenodd" d="M216.5 270.5C228.168 278.637 240.502 285.804 253.5 292C254.833 292.667 256.167 292.667 257.5 292C261.886 289.807 266.22 287.64 270.5 285.5C271.239 285.369 271.906 285.536 272.5 286C267.341 288.412 262.341 291.079 257.5 294C256.167 294.667 254.833 294.667 253.5 294C240.383 287.861 228.05 280.528 216.5 272C215.262 271.31 215.262 270.81 216.5 270.5Z" fill="#0F0E17"/>
<path opacity="0.918" fill-rule="evenodd" clip-rule="evenodd" d="M385.5 275.5C366.175 286.83 346.841 298.163 327.5 309.5C327.062 309.565 326.728 309.399 326.5 309C345.668 297.248 365.001 285.748 384.5 274.5C385.107 274.624 385.44 274.957 385.5 275.5Z" fill="#11111A"/>
<path opacity="0.988" fill-rule="evenodd" clip-rule="evenodd" d="M356.5 327.5C356.938 327.435 357.272 327.601 357.5 328C350.643 333.678 350.977 338.845 358.5 343.5C357.448 343.649 356.448 343.483 355.5 343C349.931 337.4 350.264 332.233 356.5 327.5Z" fill="#142135"/>
</mask>
<g mask="url(#mask0_364_1122)">
<rect x="8" y="-16" width="512" height="512" fill="url(#paint0_linear_364_1122)"/>
<path fill-rule="evenodd" clip-rule="evenodd" d="M304.5 106.5C313.386 107.205 317.219 111.872 316 120.5C291.5 144.333 267 168.167 242.5 192C239.697 192.755 237.03 192.422 234.5 191C222.637 179.471 211.137 167.638 200 155.5C200.036 146.476 204.536 142.976 213.5 145C222.014 153.681 230.681 162.181 239.5 170.5C260.348 150.486 280.681 129.986 300.5 109C302.066 108.392 303.4 107.558 304.5 106.5Z" fill="white"/>
</g>
<defs>
<linearGradient id="paint0_linear_364_1122" x1="264" y1="-16" x2="264" y2="496" gradientUnits="userSpaceOnUse">
<stop stop-color="#F15261"/>
<stop offset="0.510417" stop-color="#CC6ECD"/>
<stop offset="1" stop-color="#30BCE6"/>
</linearGradient>
</defs>
</svg>
